<?xml version="1.0" encoding="iso-8859-1"?>
<!-- Generator: Adobe Illustrator 19.0.0, SVG Export Plug-In . SVG Version: 6.00 Build 0)  -->
<svg version="1.1" id="Layer_1" xmlns="http://www.w3.org/2000/svg" xmlns:xlink="http://www.w3.org/1999/xlink" x="0px" y="0px"
	 viewBox="0 0 512 512" style="enable-background:new 0 0 512 512;" xml:space="preserve">
<g>
	<g>
		<polygon points="498.589,106.211 405.789,13.411 392.377,0 368.307,24.071 381.718,37.482 324.883,94.318 296.786,66.221 
			272.715,90.292 290.452,108.029 70.441,328.039 93.243,350.841 33.312,410.773 55.235,432.696 0,487.929 24.071,512 
			79.304,456.766 101.227,478.689 161.158,418.758 183.961,441.56 238.964,386.557 178.971,326.564 203.042,302.493 
			263.035,362.486 293.966,331.555 233.974,271.562 258.045,247.491 318.037,307.484 348.969,276.552 288.977,216.559 
			313.047,192.488 373.04,252.481 403.972,221.548 421.709,239.285 445.78,215.214 417.683,187.117 474.519,130.282 
			487.929,143.693 512,119.622 		"/>
	</g>
</g>
<g>
</g>
<g>
</g>
<g>
</g>
<g>
</g>
<g>
</g>
<g>
</g>
<g>
</g>
<g>
</g>
<g>
</g>
<g>
</g>
<g>
</g>
<g>
</g>
<g>
</g>
<g>
</g>
<g>
</g>
</svg>
