<?xml version="1.0" encoding="iso-8859-1"?>
<!-- Generator: Adobe Illustrator 19.0.0, SVG Export Plug-In . SVG Version: 6.00 Build 0)  -->
<svg version="1.1" id="Capa_1" xmlns="http://www.w3.org/2000/svg" xmlns:xlink="http://www.w3.org/1999/xlink" x="0px" y="0px"
	 viewBox="0 0 512 512" style="enable-background:new 0 0 512 512;" xml:space="preserve">
<g>
	<path style="fill:#CCF2FE;" d="M64,64h384c35.346,0,64,28.654,64,64v320c0,35.346-28.654,64-64,64H64c-35.346,0-64-28.654-64-64
		V128C0,92.654,28.654,64,64,64z"/>
	<path style="fill:#B3ECFD;" d="M490.667,469.333h-384c-35.346,0-64-28.654-64-64v-320c0.093-6.223,1.107-12.399,3.008-18.325
		C18.662,75.037,0.103,99.82,0,128v320c0,35.346,28.654,64,64,64h384c28.18-0.103,52.963-18.662,60.992-45.675
		C503.065,468.226,496.89,469.24,490.667,469.333z"/>
	
		<linearGradient id="SVGID_1_" gradientUnits="userSpaceOnUse" x1="-39.7815" y1="634.1481" x2="-29.6253" y2="644.3013" gradientTransform="matrix(21.3333 0 0 -21.3333 996.3334 13791.667)">
		<stop  offset="0" style="stop-color:#34CDFA"/>
		<stop  offset="1" style="stop-color:#E8D9F1"/>
	</linearGradient>
	<path style="fill:url(#SVGID_1_);" d="M256,0c-82.436,0.094-149.239,66.898-149.333,149.333v64
		c0,11.782,9.551,21.333,21.333,21.333h256c11.782,0,21.333-9.551,21.333-21.333v-64C405.239,66.898,338.436,0.094,256,0z"/>
	<path style="fill:#FFFFFF;" d="M149.333,192v-42.667c0-58.91,47.756-106.667,106.667-106.667s106.667,47.756,106.667,106.667V192
		H149.333z"/>
	<path style="fill:#34CDFA;" d="M320,149.333h-42.667c0-11.782-9.551-21.333-21.333-21.333c-11.782,0-21.333,9.551-21.333,21.333
		H192c0-35.346,28.654-64,64-64S320,113.987,320,149.333z"/>
</g>
<g>
</g>
<g>
</g>
<g>
</g>
<g>
</g>
<g>
</g>
<g>
</g>
<g>
</g>
<g>
</g>
<g>
</g>
<g>
</g>
<g>
</g>
<g>
</g>
<g>
</g>
<g>
</g>
<g>
</g>
</svg>
