<?xml version="1.0" encoding="UTF-8"?>
<svg xmlns="http://www.w3.org/2000/svg" xmlns:xlink="http://www.w3.org/1999/xlink" viewBox="0 0 24 24" version="1.1" fill="#ffffff" width="32px" height="32px">
<g id="surface1" fill="#ffffff">
<path style=" " d="M 8 3 C 5.238281 3 3 5.238281 3 8 L 3 16 C 3 18.761719 5.238281 21 8 21 L 16 21 C 18.761719 21 21 18.761719 21 16 L 21 8 C 21 5.238281 18.761719 3 16 3 Z M 18 5 C 18.550781 5 19 5.449219 19 6 C 19 6.550781 18.550781 7 18 7 C 17.449219 7 17 6.550781 17 6 C 17 5.449219 17.449219 5 18 5 Z M 12 7 C 14.761719 7 17 9.238281 17 12 C 17 14.761719 14.761719 17 12 17 C 9.238281 17 7 14.761719 7 12 C 7 9.238281 9.238281 7 12 7 Z M 12 9 C 10.34375 9 9 10.34375 9 12 C 9 13.65625 10.34375 15 12 15 C 13.65625 15 15 13.65625 15 12 C 15 10.34375 13.65625 9 12 9 Z " fill="#ffffff"/>
</g>
</svg>
