<?xml version="1.0" encoding="iso-8859-1"?>
<!-- Generator: Adobe Illustrator 19.0.0, SVG Export Plug-In . SVG Version: 6.00 Build 0)  -->
<svg version="1.1" id="Capa_1" xmlns="http://www.w3.org/2000/svg" xmlns:xlink="http://www.w3.org/1999/xlink" x="0px" y="0px"
	 viewBox="0 0 59 59" style="enable-background:new 0 0 59 59;" xml:space="preserve">
<path style="fill:#E64C3C;" d="M47.5,47h-34V25c0-9.389,7.611-17,17-17h0c9.389,0,17,7.611,17,17V47z"/>
<rect x="10.5" y="47" style="fill:#556080;" width="40" height="12"/>
<g>
	<path style="fill:#F0C419;" d="M48.793,4.293l-3,3c-0.391,0.391-0.391,1.023,0,1.414C45.988,8.902,46.244,9,46.5,9
		s0.512-0.098,0.707-0.293l3-3c0.391-0.391,0.391-1.023,0-1.414S49.184,3.902,48.793,4.293z"/>
	<path style="fill:#F0C419;" d="M29.5,0c-0.553,0-1,0.447-1,1v3c0,0.553,0.447,1,1,1s1-0.447,1-1V1C30.5,0.447,30.053,0,29.5,0z"/>
	<path style="fill:#F0C419;" d="M52.5,24h3c0.553,0,1-0.447,1-1s-0.447-1-1-1h-3c-0.553,0-1,0.447-1,1S51.947,24,52.5,24z"/>
	<path style="fill:#F0C419;" d="M55.5,38h-3c-0.553,0-1,0.447-1,1s0.447,1,1,1h3c0.553,0,1-0.447,1-1S56.053,38,55.5,38z"/>
	<path style="fill:#F0C419;" d="M10.207,4.293c-0.391-0.391-1.023-0.391-1.414,0s-0.391,1.023,0,1.414l3,3
		C11.988,8.902,12.244,9,12.5,9s0.512-0.098,0.707-0.293c0.391-0.391,0.391-1.023,0-1.414L10.207,4.293z"/>
	<path style="fill:#F0C419;" d="M6.5,22h-3c-0.553,0-1,0.447-1,1s0.447,1,1,1h3c0.553,0,1-0.447,1-1S7.053,22,6.5,22z"/>
	<path style="fill:#F0C419;" d="M6.5,38h-3c-0.553,0-1,0.447-1,1s0.447,1,1,1h3c0.553,0,1-0.447,1-1S7.053,38,6.5,38z"/>
</g>
<path style="fill:#FF5364;" d="M30.5,8c-9.389,0-17,7.611-17,17v22h17V8z"/>
<rect x="10.5" y="47" style="fill:#8697CB;" width="20" height="12"/>
<g>
</g>
<g>
</g>
<g>
</g>
<g>
</g>
<g>
</g>
<g>
</g>
<g>
</g>
<g>
</g>
<g>
</g>
<g>
</g>
<g>
</g>
<g>
</g>
<g>
</g>
<g>
</g>
<g>
</g>
</svg>
